<?xml version="1.0" encoding="UTF-8"?>
<svg id="Layer_2" data-name="Layer 2" xmlns="http://www.w3.org/2000/svg" viewBox="0 0 3025.08 472.71">
  <defs>
    <style>
      .cls-1 {
        fill: #231f20;
      }
    </style>
  </defs>
  <g id="Layer_1-2" data-name="Layer 1">
    <g>
      <path class="cls-1" d="M477.79,0H0v472.71s477.78,0,477.78,0v-236.98s-31.4,0-31.4,0c-.37,115.51-92.94,208.08-208.45,208.45-115.52-.36-208.1-92.93-208.47-208.45.36-115.52,92.95-208.1,208.46-208.46,115.51.36,208.09,92.94,208.45,208.45h31.41s0-235.73,0-235.73h0Z"/>
      <path class="cls-1" d="M197.82,221.78l5.51-4.28,6.11,3.56.42.23,1.66.85c2.08,1.02,4.21,1.94,6.38,2.75,6.29,2.45,12.97,3.77,19.71,3.92,9.75-.42,19.37-2.59,28.35-6.4l2.49-1.09,4.78-2.31,4.69,2.5,2.37,1.13c2.31,1.05,4.69,1.98,7.09,2.8,6.95,2.5,14.29,3.87,21.67,4.03,7.52-.64,14.83-2.87,21.41-6.55l2.01-1.12,5.24-3.19,5.35,3.04,2.07,1.08,1.87.89v-105.67h-84.24v81.01h-53.58v-81.01h-84.21v106.64c1.89-.5,3.75-1.11,5.56-1.84l1.8-.84,6.22-4.16,5.86,4.77.79.5c1.53.86,3.12,1.58,4.76,2.17,7.73,2.59,15.86,3.81,24.01,3.61,8.46.07,16.76-2.38,23.84-7.03h0Z"/>
      <path class="cls-1" d="M338.07,242.56c-8.98,4.7-18.89,7.38-29.01,7.85-12.5-.29-24.84-3.09-36.26-8.19-11.16,4.63-23.1,7.18-35.18,7.52-11.37-.25-22.59-2.87-32.91-7.66-9.45,5.04-20.02,7.67-30.72,7.66-12.58.42-25.1-2.04-36.59-7.17-4.03,1.5-8.19,2.68-12.41,3.52v112.38s84.21,0,84.21,0v-83.57h53.58s0,83.57,0,83.57h84.24v-112.21c-3.04-1.06-6.04-2.3-8.94-3.69h0Z"/>
      <polyline class="cls-1" points="569.34 74.48 569.34 412.65 680.42 412.65 680.42 281.62 785.36 281.62 785.36 412.65 896.41 412.65 896.41 74.48 785.36 74.48 785.36 188.62 680.42 188.62 680.42 74.48"/>
      <path class="cls-1" d="M2750.6,153.42h21.19c59.24,0,82.33,18.75,82.33,89.18,0,63.9-28.26,91.12-80.04,91.12h-23.49v-180.31h0ZM2785.39,412.65c108.73,0,179.8-48.86,179.8-176.13,0-111.31-67.8-162.04-176.98-162.04h-148.68v338.17h145.85ZM2400.97,153.42h51.77c25.9,0,44.69,11.26,44.69,35.2s-18.3,31.91-52.66,31.91h-43.8v-67.11h0ZM2434.84,294.75c51.79,0,59.34,14.58,59.34,58.74,0,30.09,2.82,51.65,5.62,59.15h112.5v-10.34c-13.19,0-11.8-15-11.8-59.15,0-68.13-21.63-76.58-57.39-89.71,39.54-10.84,56.97-43.66,56.97-82.67,0-65.75-37.18-96.3-150.14-96.3h-160.03v338.17h111.07v-117.9h33.87ZM1779.81,74.48h-91.77l-40.47,209.02h-.95l-38.12-209.02h-107.32l84.28,338.17h109.16l38.61-196.33h.95l39.03,196.33h109.18l84.25-338.17h-107.29l-38.12,209.02h-.95l-40.47-209.02h0ZM1419.72,287.73l126.15-213.25h-122.38l-58.37,114.6-58.37-114.6h-124.21l126.1,215.14v123.03h111.08v-124.92h0ZM1125.84,297.59h-70.13l34.37-121.19,35.76,121.19h0ZM1021.84,412.65l12.69-44.59h110.59l13.17,44.59h110.61l-121.42-338.17h-112.95l-121.41,338.17h108.72Z"/>
      <path class="cls-1" d="M2128.56,297.59h-70.15l34.39-121.19,35.76,121.19h0ZM2024.54,412.65l12.7-44.59h110.59l13.16,44.59h110.6l-121.41-338.16h-112.95l-121.4,338.16h108.7Z"/>
      <path class="cls-1" d="M2980,103.92v-14.5h11.67c5.06,0,10.25.79,10.25,7.17,0,8.25-8.53,7.33-14.24,7.33h-7.68ZM2994.53,107.87c7.26-.19,12.78-3.22,12.78-11.21,0-6.71-3.61-10.79-14.48-10.79h-17.82v40.77h4.99v-18.77h9.16l11.7,18.77h6.01l-12.33-18.77h0ZM2988.6,142.86c20.16,0,36.47-16.41,36.47-36.65s-16.32-36.46-36.47-36.46-36.7,16.41-36.7,36.46,16.43,36.65,36.7,36.65M2988.6,138.02c-17.89,0-30.88-13.87-30.88-31.81s13-31.56,30.88-31.56,30.73,13.87,30.73,31.56-12.97,31.81-30.73,31.81"/>
    </g>
  </g>
</svg>